<svg xmlns="http://www.w3.org/2000/svg" xmlns:xlink="http://www.w3.org/1999/xlink" viewBox="0 0 484.69 151.35"><defs><style>.cls-1{isolation:isolate;}.cls-2{fill:url(#linear-gradient);}.cls-3{fill:url(#linear-gradient-2);}.cls-4{fill:url(#linear-gradient-3);}.cls-5{fill:url(#linear-gradient-4);}.cls-6{fill:url(#linear-gradient-5);}.cls-7{fill:url(#linear-gradient-6);}.cls-8{fill:url(#linear-gradient-7);}.cls-9{fill:url(#linear-gradient-8);}.cls-10{fill:url(#linear-gradient-9);}.cls-11{fill:url(#linear-gradient-10);}.cls-12,.cls-13{fill:#404041;}.cls-13{mix-blend-mode:soft-light;}</style><linearGradient id="linear-gradient" x1="178.6" y1="280.98" x2="251.56" y2="280.98" gradientUnits="userSpaceOnUse"><stop offset="0" stop-color="#e7012f"/><stop offset="1" stop-color="#e7008a"/></linearGradient><linearGradient id="linear-gradient-2" x1="252.14" y1="280.94" x2="325.11" y2="280.94" xlink:href="#linear-gradient"/><linearGradient id="linear-gradient-3" x1="206.91" y1="348.11" x2="296.93" y2="348.11" xlink:href="#linear-gradient"/><linearGradient id="linear-gradient-4" x1="212.75" y1="284.35" x2="290.96" y2="284.35" xlink:href="#linear-gradient"/><linearGradient id="linear-gradient-5" x1="251.44" y1="238.74" x2="251.69" y2="238.74" xlink:href="#linear-gradient"/><linearGradient id="linear-gradient-6" x1="252.02" y1="238.74" x2="252.27" y2="238.74" xlink:href="#linear-gradient"/><linearGradient id="linear-gradient-7" x1="251.69" y1="239.07" x2="252.02" y2="239.07" xlink:href="#linear-gradient"/><linearGradient id="linear-gradient-8" x1="251.56" y1="238.4" x2="252.14" y2="238.4" xlink:href="#linear-gradient"/><linearGradient id="linear-gradient-9" x1="290.96" y1="329.94" x2="291.14" y2="329.94" xlink:href="#linear-gradient"/><linearGradient id="linear-gradient-10" x1="212.64" y1="330" x2="212.91" y2="330" xlink:href="#linear-gradient"/></defs><g class="cls-1"><g id="Layer_1" data-name="Layer 1"><path class="cls-2" d="M197.83,292.9a54.09,54.09,0,0,1,53.61-54l.12-.29L243.7,220.1a73.25,73.25,0,0,0-46.33,121.76L212.64,330A53.82,53.82,0,0,1,197.83,292.9Z" transform="translate(-178.6 -218.16)"/><path class="cls-3" d="M252.27,238.88A54,54,0,0,1,291.14,330l15.27,11.84A73.26,73.26,0,0,0,260,220.1l-7.87,18.49Z" transform="translate(-178.6 -218.16)"/><path class="cls-4" d="M251.85,346.93a53.85,53.85,0,0,1-39-16.74l-5.89,20.57a73.31,73.31,0,0,0,90-.11L291,330.06A53.88,53.88,0,0,1,251.85,346.93Z" transform="translate(-178.6 -218.16)"/><path class="cls-5" d="M251.85,304.72,291,329.82l-38.69-90.94H252l-.17.39-.16-.39h-.25l-38.69,90.94Z" transform="translate(-178.6 -218.16)"/><path class="cls-6" d="M251.56,238.59l-.12.29h.25Z" transform="translate(-178.6 -218.16)"/><path class="cls-7" d="M252.27,238.88l-.13-.29-.12.29Z" transform="translate(-178.6 -218.16)"/><path class="cls-8" d="M251.69,238.88l.16.39.17-.39h-.33Z" transform="translate(-178.6 -218.16)"/><path class="cls-9" d="M251.85,238.88H252l.12-.29-.29-.68-.29.68.13.29Z" transform="translate(-178.6 -218.16)"/><path class="cls-10" d="M291,330.06l.11-.11-.18-.13Z" transform="translate(-178.6 -218.16)"/><path class="cls-11" d="M212.64,330l.16.17.11-.37Z" transform="translate(-178.6 -218.16)"/><path class="cls-12" d="M536.59,252.16q0,16.82-8.24,25.55-6.87,7.28-19.06,8.48V270.66a10.47,10.47,0,0,0,5.06-3.89q3.3-4.68,3.29-14.61t-3.34-14.73a10.51,10.51,0,0,0-5-3.92V218.16q12.24,1.17,19.1,8.46Q536.6,235.31,536.59,252.16Z" transform="translate(-178.6 -218.16)"/><path class="cls-12" d="M490.77,252.16q0,15.33,8.46,18.49V286.2q-12.06-1.2-19-8.53-8.35-8.81-8.35-25.6,0-16.63,8.3-25.39,6.93-7.31,19.09-8.51v15.35Q490.79,236.74,490.77,252.16Z" transform="translate(-178.6 -218.16)"/><path class="cls-12" d="M663.29,335.47q0,16.8-8.24,25.54-6.88,7.29-19.07,8.49V354a10.48,10.48,0,0,0,5.07-3.88q3.3-4.68,3.29-14.61T641,320.74a10.57,10.57,0,0,0-5-3.93V301.46q12.24,1.17,19.11,8.46Q663.29,318.6,663.29,335.47Z" transform="translate(-178.6 -218.16)"/><path class="cls-12" d="M617.47,335.47q0,15.33,8.46,18.48v15.56q-12.06-1.2-19-8.54-8.35-8.81-8.36-25.59,0-16.63,8.31-25.39,6.93-7.31,19.09-8.51v15.35Q617.48,320.06,617.47,335.47Z" transform="translate(-178.6 -218.16)"/><path class="cls-12" d="M463.14,335.46q0,16.8-8.23,25.54-6.89,7.29-19.07,8.49V354a10.47,10.47,0,0,0,5.06-3.89c2.21-3.12,3.29-8,3.29-14.61s-1.11-11.55-3.34-14.73a10.41,10.41,0,0,0-5-3.92V301.46q12.24,1.16,19.1,8.46Q463.15,318.6,463.14,335.46Z" transform="translate(-178.6 -218.16)"/><path class="cls-12" d="M417.33,335.46q0,15.33,8.46,18.48V369.5q-12.07-1.2-19-8.53-8.36-8.81-8.36-25.6,0-16.64,8.3-25.39,6.94-7.31,19.1-8.51v15.35Q417.33,320,417.33,335.46Z" transform="translate(-178.6 -218.16)"/><path class="cls-12" d="M372.44,302.19H350.65a12.46,12.46,0,0,0-12.46,12.46v2.25h16.26v51.87h18Z" transform="translate(-178.6 -218.16)"/><rect class="cls-12" x="199.02" y="84.03" width="14.91" height="14.72"/><polygon class="cls-12" points="419.93 83.78 400.81 119.21 392.01 102.09 400.44 83.78 419.93 83.78"/><path class="cls-12" d="M576.63,342.53v26H558.5V343.07l-21.91-41.13h10.35a14.43,14.43,0,0,1,13.11,8.4Z" transform="translate(-178.6 -218.16)"/><path class="cls-12" d="M455.83,244.8v14.76H410.71l3-8.42a9.49,9.49,0,0,1,8.11-6.3c.27,0,.56,0,.83,0Z" transform="translate(-178.6 -218.16)"/><path class="cls-12" d="M461.31,220.22v14.44H439.76v5H422.6c-.27,0-.56,0-.83,0V220.22Z" transform="translate(-178.6 -218.16)"/><polygon class="cls-12" points="282.7 53.98 282.7 68.64 243.17 68.64 243.17 41.39 261.16 41.41 261.16 53.98 282.7 53.98"/><polygon class="cls-13" points="243.17 55.02 261.16 41.41 243.17 41.39 243.17 55.02"/><path class="cls-12" d="M499.93,350.39l9.53,18.37h20.31l-19-33.53Z" transform="translate(-178.6 -218.16)"/><path class="cls-12" d="M530.13,302.18l-31.84,45L491,357.52v11.24H472.89V302.18H491v28.93l14.48-21.5a16.81,16.81,0,0,1,13.95-7.43Z" transform="translate(-178.6 -218.16)"/><polygon class="cls-13" points="294.29 120.6 312.37 112.95 294.29 134.69 294.29 120.6"/><path class="cls-12" d="M385.55,220.22v30.1c0,1.54,16,28.71,16,28.71V220.22Zm-23.86,0h-23.5V286.8h15.94v-30q0-5.84-.86-16.9h.4l19,36.65a19,19,0,0,0,16.88,10.26h8.74l-12.39-20.31Z" transform="translate(-178.6 -218.16)"/><polygon class="cls-13" points="175.07 21.74 164.87 2.06 159.59 2.06 159.59 14.49 175.07 21.74"/></g></g></svg>